G04 EAGLE Gerber RS-274X export*
G75*
%MOMM*%
%FSLAX34Y34*%
%LPD*%
%INBottom Copper*%
%IPPOS*%
%AMOC8*
5,1,8,0,0,1.08239X$1,22.5*%
G01*
%ADD10P,1.732040X8X112.500000*%
%ADD11C,1.600200*%
%ADD12C,1.320800*%
%ADD13C,1.879600*%
%ADD14C,1.651000*%
%ADD15C,0.152400*%
%ADD16C,0.756400*%


D10*
X184150Y400050D03*
D11*
X184150Y374650D03*
D12*
X323596Y431800D02*
X336804Y431800D01*
X336804Y406400D02*
X323596Y406400D01*
X323596Y381000D02*
X336804Y381000D01*
X336804Y355600D02*
X323596Y355600D01*
X399796Y355600D02*
X413004Y355600D01*
X413004Y381000D02*
X399796Y381000D01*
X399796Y406400D02*
X413004Y406400D01*
X413004Y431800D02*
X399796Y431800D01*
D13*
X165100Y292100D03*
X88900Y292100D03*
X165100Y260350D03*
X88900Y260350D03*
X279400Y292100D03*
X203200Y292100D03*
X279400Y260350D03*
X203200Y260350D03*
X317500Y260350D03*
X393700Y260350D03*
X317500Y292100D03*
X393700Y292100D03*
D14*
X368300Y222250D03*
X342900Y222250D03*
D10*
X101600Y438150D03*
D11*
X101600Y412750D03*
D10*
X254000Y438150D03*
D11*
X254000Y412750D03*
D10*
X101600Y361950D03*
D11*
X101600Y336550D03*
D10*
X260350Y361950D03*
D11*
X260350Y336550D03*
D14*
X342900Y184150D03*
X368300Y184150D03*
D15*
X100584Y376428D02*
X100584Y411480D01*
X100584Y376428D02*
X76200Y352044D01*
X76200Y272796D01*
X88392Y260604D01*
X100584Y411480D02*
X101600Y412750D01*
X88392Y260604D02*
X88900Y260350D01*
X205740Y438912D02*
X252984Y438912D01*
X205740Y438912D02*
X167640Y477012D01*
X252984Y438912D02*
X254000Y438150D01*
D16*
X167640Y477012D03*
D15*
X329184Y355092D02*
X329184Y271272D01*
X318516Y260604D01*
X329184Y355092D02*
X330200Y355600D01*
X318516Y260604D02*
X317500Y260350D01*
X342900Y234696D02*
X342900Y222250D01*
X342900Y234696D02*
X318516Y259080D01*
X317500Y260350D01*
X405384Y374904D02*
X405384Y381000D01*
X405384Y374904D02*
X381000Y350520D01*
X381000Y272796D01*
X393192Y260604D01*
X405384Y381000D02*
X406400Y381000D01*
X393192Y260604D02*
X393700Y260350D01*
X367284Y182880D02*
X356616Y182880D01*
X345948Y172212D01*
X208788Y172212D01*
X88900Y292100D01*
X367284Y182880D02*
X368300Y184150D01*
X278892Y291084D02*
X213360Y225552D01*
X278892Y291084D02*
X279400Y292100D01*
D16*
X213360Y225552D03*
D15*
X330708Y400812D02*
X330708Y405384D01*
X330708Y400812D02*
X353568Y377952D01*
X353568Y195072D01*
X342900Y184404D01*
X330708Y405384D02*
X330200Y406400D01*
X342900Y184404D02*
X342900Y184150D01*
M02*
