G04 EAGLE Gerber RS-274X export*
G75*
%MOMM*%
%FSLAX34Y34*%
%LPD*%
%INSoldermask Top*%
%IPPOS*%
%AMOC8*
5,1,8,0,0,1.08239X$1,22.5*%
G01*
%ADD10P,1.951982X8X112.500000*%
%ADD11C,1.803400*%
%ADD12C,1.524000*%
%ADD13C,2.082800*%
%ADD14C,1.854200*%
%ADD15R,2.743200X5.283200*%
%ADD16C,0.959600*%


D10*
X184150Y400050D03*
D11*
X184150Y374650D03*
D12*
X323596Y431800D02*
X336804Y431800D01*
X336804Y406400D02*
X323596Y406400D01*
X323596Y381000D02*
X336804Y381000D01*
X336804Y355600D02*
X323596Y355600D01*
X399796Y355600D02*
X413004Y355600D01*
X413004Y381000D02*
X399796Y381000D01*
X399796Y406400D02*
X413004Y406400D01*
X413004Y431800D02*
X399796Y431800D01*
D13*
X165100Y292100D03*
X88900Y292100D03*
X165100Y260350D03*
X88900Y260350D03*
X279400Y292100D03*
X203200Y292100D03*
X279400Y260350D03*
X203200Y260350D03*
X317500Y260350D03*
X393700Y260350D03*
X317500Y292100D03*
X393700Y292100D03*
D14*
X368300Y222250D03*
X342900Y222250D03*
D10*
X101600Y438150D03*
D11*
X101600Y412750D03*
D10*
X254000Y438150D03*
D11*
X254000Y412750D03*
D10*
X101600Y361950D03*
D11*
X101600Y336550D03*
D10*
X260350Y361950D03*
D11*
X260350Y336550D03*
D15*
X88900Y190500D03*
X120650Y190500D03*
X152400Y190500D03*
X184150Y190500D03*
X215900Y190500D03*
X279400Y190500D03*
X247650Y190500D03*
X88900Y508000D03*
X120650Y508000D03*
X152400Y508000D03*
X184150Y508000D03*
X215900Y508000D03*
X279400Y508000D03*
X247650Y508000D03*
X311150Y508000D03*
X342900Y508000D03*
X374650Y508000D03*
X406400Y508000D03*
D14*
X342900Y184150D03*
X368300Y184150D03*
D16*
X167640Y477012D03*
X213360Y225552D03*
M02*
