M48
;GenerationSoftware,Autodesk,EAGLE,9.3.2*%
;CreationDate,2019-04-25T08:24:20Z*%
FMAT,2
ICI,OFF
METRIC,TZ,000.000
T4C0.350
T3C0.700
T2C0.813
T1C0.900
%
G90
M71
T1
X27940Y26035
X20320Y26035
X16510Y29210
X8890Y29210
X16510Y26035
X8890Y26035
X27940Y29210
X20320Y29210
X31750Y26035
X39370Y26035
X31750Y29210
X39370Y29210
T2
X18415Y40005
X18415Y37465
X33020Y43180
X33020Y40640
X33020Y38100
X33020Y35560
X40640Y35560
X40640Y38100
X40640Y40640
X40640Y43180
X10160Y43815
X10160Y41275
X25400Y43815
X25400Y41275
X10160Y36195
X10160Y33655
X26035Y36195
X26035Y33655
T3
X34290Y22225
X36830Y18415
X36830Y22225
X34290Y18415
T4
X21336Y22555
X16764Y47701
M30